<?xml version="1.0" standalone="no"?>
<!DOCTYPE svg PUBLIC "-//W3C//DTD SVG 20010904//EN"
 "http://www.w3.org/TR/2001/REC-SVG-20010904/DTD/svg10.dtd">
<svg version="1.0" xmlns="http://www.w3.org/2000/svg"
 width="400.000000pt" height="400.000000pt" viewBox="0 0 400.000000 400.000000"
 preserveAspectRatio="xMidYMid meet">
<metadata>
Created by potrace 1.11, written by Peter Selinger 2001-2013
</metadata>
<g transform="translate(0.000000,400.000000) scale(0.100000,-0.100000)"
fill="#000000" stroke="none">
<path d="M3066 3624 c5 -38 9 -151 8 -251 0 -100 3 -180 6 -178 12 7 24 155
25 313 1 151 1 152 -23 168 l-25 16 9 -68z"/>
<path d="M626 3453 c-84 -78 -105 -105 -78 -97 15 4 15 3 -2 -8 -37 -26 -108
-92 -127 -119 l-20 -28 21 -46 c13 -29 27 -45 38 -45 16 0 18 -10 17 -100 -1
-57 2 -97 7 -94 12 8 1 -87 -12 -100 -13 -13 -13 -46 0 -46 6 0 10 -6 10 -13
0 -7 9 -18 20 -25 18 -11 20 -21 17 -72 -4 -61 0 -69 21 -48 10 10 15 10 22
-2 12 -18 11 -20 15 55 6 95 15 168 24 180 5 5 11 25 14 43 5 24 3 32 -7 32
-12 0 -12 10 2 62 23 85 40 93 170 80 53 -6 100 -8 104 -6 10 6 16 -22 28
-125 19 -169 35 -219 88 -274 43 -45 100 -76 199 -108 40 -12 70 -26 68 -29
-5 -9 36 -45 72 -63 87 -45 263 -49 347 -8 69 34 236 199 313 308 75 108 93
123 149 123 36 0 45 -5 69 -36 15 -20 45 -84 65 -143 40 -113 96 -249 111
-267 5 -6 19 -31 32 -54 16 -30 38 -52 73 -71 62 -36 189 -69 261 -69 45 0 58
4 78 26 14 15 25 32 25 39 0 7 20 15 46 19 166 22 227 74 329 280 38 76 83
156 100 176 29 35 73 155 62 167 -24 23 -404 133 -462 133 -54 0 -58 11 -19
46 37 32 61 36 50 8 -3 -8 1 -14 9 -14 8 0 23 -9 34 -21 15 -17 23 -19 38 -10
17 10 17 10 1 11 -21 0 -25 45 -5 53 7 3 4 6 -7 6 -17 1 -17 2 -2 26 17 25 17
26 -11 20 -15 -3 -23 -3 -16 1 20 9 3 34 -23 34 -13 0 -24 -4 -24 -9 0 -5 10
-7 22 -3 14 3 19 2 14 -6 -4 -7 -14 -12 -22 -12 -8 0 -13 -4 -10 -9 4 -5 -7
-4 -24 2 -22 8 -35 9 -48 1 -22 -14 -181 -9 -196 6 -15 15 -36 12 -36 -5 0 -8
-9 -15 -20 -15 -11 0 -20 -4 -20 -10 0 -5 -18 -10 -41 -10 -39 0 -41 1 -35 25
7 26 -2 33 -20 15 -6 -6 -34 -13 -62 -17 -29 -3 -52 -9 -52 -13 0 -4 -15 -10
-32 -13 -34 -5 -73 -14 -73 -17 0 -4 -89 -14 -137 -14 -47 -1 -60 3 -81 24
-51 52 -79 71 -98 65 -11 -4 -19 -2 -19 5 0 6 -6 10 -12 9 -35 -4 -48 2 -49
24 0 12 -3 16 -6 10 -7 -18 -30 -16 -37 2 -8 22 -52 36 -124 41 -45 3 -61 1
-56 -7 7 -11 -14 -10 -136 5 -37 5 -77 23 -82 37 -3 8 -9 9 -17 5 -11 -7 -11
-10 0 -17 10 -6 10 -9 2 -9 -6 0 -15 5 -18 10 -3 6 -11 10 -16 10 -6 0 -8 -4
-5 -9 11 -16 -36 -20 -148 -11 -61 6 -174 10 -251 10 -127 1 -313 25 -332 43
-3 4 -2 19 2 34 5 15 7 32 6 37 -1 5 3 22 8 37 5 16 8 29 5 29 -3 0 -38 -30
-78 -67z m821 -139 c-3 -3 -12 -4 -19 -1 -8 3 -5 6 6 6 11 1 17 -2 13 -5z
m110 -20 c-3 -3 -12 -4 -19 -1 -8 3 -5 6 6 6 11 1 17 -2 13 -5z m-1069 -81 c0
-54 -2 -63 -10 -43 -8 22 -3 110 7 110 2 0 3 -30 3 -67z m991 21 c20 -6 22 -9
9 -18 -8 -6 -20 -21 -26 -32 -14 -26 -39 -32 -155 -40 -81 -6 -94 -4 -158 21
-79 32 -79 45 0 70 35 11 77 14 176 10 72 -2 141 -7 154 -11z m-496 -8 c19
-15 9 -29 -15 -22 -7 2 -25 7 -40 10 -16 4 -28 11 -28 16 0 15 62 11 83 -4z
m1886 -202 c58 -8 135 -24 171 -34 68 -21 137 -57 126 -67 -3 -3 -14 1 -23 9
-16 13 -25 14 -80 1 -42 -10 -63 -19 -63 -29 0 -8 -9 -39 -19 -69 -16 -45 -17
-55 -5 -59 8 -3 14 -13 14 -22 0 -9 6 -14 13 -11 6 2 54 13 106 23 l93 19 -5
50 c-5 38 -4 46 4 31 18 -31 14 -127 -10 -199 -42 -131 -117 -257 -143 -241
-5 3 -14 1 -21 -4 -16 -13 -114 -42 -142 -42 -17 0 -21 7 -23 37 -2 20 -12 57
-23 82 -13 30 -16 48 -9 55 5 5 10 7 10 2 0 -4 25 17 55 47 58 57 67 85 45
142 -9 23 -13 25 -46 19 -40 -7 -54 4 -54 45 0 23 1 23 18 8 22 -20 42 -22 43
-4 5 49 -16 75 -81 104 -31 14 -33 16 -15 24 17 6 17 8 3 8 -10 1 -18 6 -18
12 0 5 5 7 10 4 6 -3 10 -1 10 5 0 6 -6 13 -14 16 -16 6 -51 54 -40 54 4 0 54
-7 113 -16z m316 -14 c13 -5 14 -9 5 -9 -8 0 -24 4 -35 9 -13 5 -14 9 -5 9 8
0 24 -4 35 -9z m-2100 -39 c41 -17 91 -33 112 -37 41 -7 113 -43 113 -56 0
-15 5 -23 39 -58 27 -28 40 -34 67 -31 20 1 34 -2 34 -9 0 -6 -4 -8 -10 -5
-15 10 -12 -11 4 -24 12 -10 20 -9 39 3 13 9 27 13 30 9 4 -3 7 -1 7 6 0 6 -6
11 -12 10 -31 -4 -42 1 -31 12 9 9 19 7 40 -6 15 -11 43 -21 61 -24 18 -3 34
-10 35 -15 2 -7 -20 -24 -41 -32 -1 -1 0 -9 4 -18 8 -20 33 -21 59 -2 11 7 35
17 53 21 18 3 30 10 27 15 -3 5 -1 11 5 15 6 4 8 11 4 16 -3 5 1 21 10 34 19
28 21 82 4 87 -8 3 -8 9 0 24 6 10 12 14 12 9 0 -17 70 -5 70 11 0 8 5 14 10
14 6 0 10 11 10 24 0 13 7 26 15 30 21 8 65 -14 65 -33 0 -14 2 -14 11 -1 8
11 9 8 4 -13 -4 -19 -2 -26 5 -22 5 3 10 3 10 0 0 -16 -93 -185 -102 -185 -5
0 -6 -5 -3 -10 3 -6 -1 -13 -9 -16 -9 -3 -16 -14 -16 -24 0 -10 -15 -30 -32
-44 -18 -14 -28 -26 -23 -26 6 0 27 14 48 31 21 17 40 29 43 27 8 -8 -75 -68
-128 -93 -42 -19 -55 -22 -67 -12 -12 10 -13 9 -7 -1 5 -9 3 -12 -5 -11 -8 2
-38 -3 -68 -10 -108 -27 -311 7 -448 75 -103 50 -128 90 -143 226 -9 81 -4
148 12 148 5 0 43 -13 83 -29z m885 -71 l-11 -25 6 25 c2 14 5 36 6 50 l2 25
4 -25 c2 -14 -1 -37 -7 -50z m430 40 c-6 -10 -15 -22 -20 -25 -16 -10 -12 11
5 25 8 7 12 17 8 23 -3 6 -1 7 5 3 9 -5 9 -13 2 -26z m-810 -14 c0 -3 -4 -8
-10 -11 -5 -3 -10 -1 -10 4 0 6 5 11 10 11 6 0 10 -2 10 -4z m1754 -45 c3 -4
-6 -6 -19 -3 -14 2 -25 6 -25 8 0 8 39 4 44 -5z m-1904 -10 c0 -5 -18 -8 -40
-8 -52 2 -52 17 0 17 22 0 40 -4 40 -9z m105 -15 c-9 -13 -13 -31 -9 -41 5
-13 3 -16 -7 -13 -8 2 -15 15 -17 27 -2 12 -10 25 -18 28 -28 10 -13 23 26 23
40 0 40 0 25 -24z m1268 -27 c13 -20 -1 -36 -58 -63 -22 -11 -44 -22 -49 -25
-5 -2 -6 1 -2 7 4 7 1 12 -6 12 -7 0 2 14 20 31 17 16 32 36 32 43 0 19 51 14
63 -5z m-466 -71 c-3 -8 -6 -5 -6 6 -1 11 2 17 5 13 3 -3 4 -12 1 -19z m473
-86 c-12 -15 -25 -27 -28 -26 -13 1 -32 -25 -32 -44 0 -33 -11 -51 -26 -45
-10 4 -14 -3 -14 -26 0 -29 19 -46 21 -18 0 6 5 2 11 -10 6 -13 17 -23 25 -23
7 0 13 -9 13 -20 0 -10 10 -28 21 -39 22 -20 20 -51 -2 -51 -6 0 -9 6 -6 13 7
19 -33 43 -44 26 -4 -7 -5 -17 -3 -21 8 -13 -47 -8 -90 7 -22 8 -43 12 -47 10
-4 -3 -22 2 -40 10 l-34 14 38 1 c20 0 37 5 37 11 0 6 -9 8 -22 4 -16 -4 -19
-4 -9 3 7 5 11 15 7 20 -9 15 -38 3 -29 -12 3 -6 -3 -3 -15 8 -13 11 -28 16
-39 12 -11 -4 -9 1 7 13 25 20 22 36 -8 36 -10 0 -18 9 -20 23 -3 17 2 22 20
24 13 1 30 2 38 3 8 0 20 4 27 8 7 4 35 5 62 1 l50 -6 -12 33 c-7 19 -16 38
-22 42 -6 5 -3 7 7 4 11 -4 18 2 22 17 4 16 14 23 33 25 16 1 39 3 53 4 14 1
34 13 45 27 l20 25 3 -28 c2 -17 -5 -38 -18 -55z m-1414 -168 c29 -4 52 -10
49 -13 -8 -15 -121 4 -132 22 -4 7 0 8 11 4 10 -4 42 -10 72 -13z m1084 -40
c0 -2 -9 0 -20 6 -11 6 -20 13 -20 16 0 2 9 0 20 -6 11 -6 20 -13 20 -16z
m323 -151 c-7 -2 -21 -2 -30 0 -10 3 -4 5 12 5 17 0 24 -2 18 -5z"/>
<path d="M1292 2630 c-25 -33 -27 -40 -10 -40 6 0 8 3 5 7 -4 3 4 16 18 29 14
13 21 25 17 28 -5 3 -19 -8 -30 -24z"/>
<path d="M2630 2500 c-12 -8 -12 -10 3 -16 22 -8 50 3 42 16 -8 12 -25 13 -45
0z"/>
<path d="M2556 2483 c-6 -14 -5 -15 5 -6 7 7 10 15 7 18 -3 3 -9 -2 -12 -12z"/>
<path d="M1615 3480 c-3 -5 1 -10 9 -10 9 0 16 5 16 10 0 6 -4 10 -9 10 -6 0
-13 -4 -16 -10z"/>
<path d="M329 3038 c-8 -135 -8 -208 1 -213 14 -8 28 34 40 113 11 79 20 90
57 72 16 -8 31 -16 36 -18 4 -2 7 3 7 12 0 21 -46 42 -97 45 -30 2 -43 -1 -44
-11z"/>
<path d="M408 2749 c-24 -14 -23 -63 3 -116 31 -65 40 -58 53 40 6 44 -7 87
-26 87 -7 0 -21 -5 -30 -11z"/>
<path d="M527 2467 c4 -12 7 -34 7 -49 -1 -20 2 -24 11 -15 6 7 14 20 17 29 5
11 14 15 27 11 16 -4 21 -1 21 16 0 14 -5 19 -15 15 -8 -4 -15 -2 -15 2 0 5
-14 10 -31 11 -27 2 -29 0 -22 -20z"/>
<path d="M581 2366 c-1 -11 -4 -16 -8 -13 -3 4 -16 -2 -28 -13 -16 -15 -20
-29 -17 -50 2 -17 8 -30 12 -30 11 0 52 99 46 113 -2 7 -5 3 -5 -7z"/>
<path d="M495 2310 c3 -5 8 -10 11 -10 2 0 4 5 4 10 0 6 -5 10 -11 10 -5 0 -7
-4 -4 -10z"/>
<path d="M2278 2314 c-6 -6 20 -64 29 -64 3 0 3 11 1 25 -6 30 7 34 15 5 3
-11 12 -20 21 -20 19 0 21 23 4 37 -17 13 -63 24 -70 17z"/>
<path d="M500 2270 c0 -5 5 -10 10 -10 6 0 10 5 10 10 0 6 -4 10 -10 10 -5 0
-10 -4 -10 -10z"/>
<path d="M2495 2260 c-3 -5 1 -10 9 -10 9 0 16 5 16 10 0 6 -4 10 -9 10 -6 0
-13 -4 -16 -10z"/>
<path d="M2427 2139 c5 -63 4 -74 -12 -85 -10 -8 -16 -17 -12 -20 9 -9 37 15
37 32 0 8 5 14 11 14 5 0 7 -4 4 -10 -3 -5 -1 -10 4 -10 6 0 11 9 11 20 0 11
-4 20 -10 20 -5 0 -10 18 -10 39 0 45 -8 71 -21 71 -5 0 -6 -31 -2 -71z"/>
<path d="M613 2156 c3 -7 0 -19 -6 -25 -8 -8 -4 -11 17 -9 32 3 46 25 25 39
-21 13 -42 11 -36 -5z"/>
<path d="M1800 2102 c-19 -16 -21 -22 -11 -40 6 -12 18 -22 26 -22 8 0 15 -5
15 -12 0 -9 3 -9 11 -1 7 7 21 8 39 3 20 -6 35 -4 50 7 15 10 34 13 58 10 l37
-6 -25 20 c-69 56 -159 74 -200 41z"/>
<path d="M2127 2084 c-14 -13 -33 -24 -41 -24 -23 0 -36 -30 -23 -52 14 -22
-13 -74 -38 -72 -18 2 -18 -1 -6 -25 6 -10 6 -23 0 -32 -7 -11 -9 -11 -9 4 0
11 -4 15 -12 11 -6 -4 -8 -3 -5 4 4 5 5 17 2 25 -8 18 -55 11 -74 -12 -12 -15
-13 -14 -7 2 4 14 2 18 -12 15 -9 -2 -16 -10 -14 -17 1 -7 -2 -10 -7 -7 -17
11 -20 -8 -10 -55 13 -60 30 -91 46 -84 8 2 12 1 9 -3 -2 -4 -1 -14 4 -22 5
-8 3 -22 -4 -34 -11 -18 -14 -40 -6 -48 1 -2 2 -17 3 -35 l2 -32 -25 22 c-38
33 -40 38 -38 89 3 60 18 47 20 -15 0 -31 5 -48 16 -52 13 -5 13 -3 1 11 -10
12 -11 18 -3 21 9 3 8 16 -2 48 -7 25 -10 45 -7 45 3 0 -2 12 -12 26 -9 14
-18 46 -21 71 -5 56 -9 61 -32 40 -23 -21 -39 -22 -22 -2 10 12 10 15 -1 15
-8 0 -5 6 7 16 18 15 18 15 -5 8 -16 -4 -21 -3 -17 5 5 7 -3 11 -20 11 -25 0
-26 -1 -10 -13 16 -12 15 -16 -24 -51 -33 -30 -39 -40 -29 -47 11 -7 11 -9 1
-9 -8 0 -12 -10 -10 -26 2 -15 -1 -29 -7 -30 -16 -6 -11 96 6 107 12 7 12 9
-1 9 -13 0 -13 1 0 10 11 7 17 5 22 -8 6 -16 7 -16 7 0 1 9 -4 20 -10 23 -13
9 -51 -24 -43 -37 3 -5 -1 -15 -10 -21 -13 -10 -14 -16 -3 -37 7 -14 11 -36 9
-50 -2 -14 -4 -40 -5 -57 -1 -18 -5 -33 -9 -33 -5 0 -8 5 -8 10 0 6 -5 10 -11
10 -6 0 -9 -22 -8 -55 1 -30 6 -52 11 -49 5 3 6 15 2 26 -4 15 -2 19 7 15 8
-2 13 -10 11 -16 -1 -6 2 -11 8 -11 5 0 9 -17 9 -37 l-2 -38 -7 35 c-4 19 -8
27 -9 16 -1 -12 -6 -16 -16 -12 -8 3 -15 1 -15 -5 0 -6 -5 -7 -10 -4 -6 4 -7
11 -4 17 5 7 1 9 -9 5 -10 -3 -17 -2 -17 3 0 6 4 10 10 10 5 0 9 8 8 18 -2 9
1 36 6 60 5 29 4 47 -4 57 -6 8 -9 23 -6 33 5 16 1 19 -26 20 -17 0 -40 -4
-50 -9 -14 -7 -18 -6 -18 6 0 8 5 15 10 15 6 0 10 4 10 9 0 6 -9 9 -20 8 -13
-1 -19 -7 -18 -17 2 -8 -6 -20 -17 -26 -11 -6 -19 -16 -17 -22 1 -7 -3 -12 -9
-12 -6 0 -8 9 -4 21 5 15 4 19 -4 15 -6 -4 -11 -2 -11 3 0 6 -7 11 -15 11 -8
0 -15 -5 -15 -11 0 -8 -4 -8 -14 0 -8 7 -17 8 -20 3 -3 -5 -15 -12 -26 -15
-13 -3 -18 -1 -13 6 4 6 -2 8 -15 5 -12 -4 -20 -3 -17 2 2 4 -4 15 -14 24 -16
15 -18 14 -31 -9 -16 -30 -30 -32 -30 -5 0 26 -6 25 -48 -7 -23 -17 -49 -27
-74 -28 -35 -1 -49 7 -30 18 4 2 0 2 -8 0 -32 -9 -35 -7 -35 20 1 26 0 27 -12
11 -12 -16 -13 -16 -13 7 0 14 5 30 11 36 6 6 9 17 7 24 -2 7 -18 -7 -35 -31
-24 -31 -32 -37 -30 -22 0 11 6 20 12 19 5 -1 9 4 7 11 -1 7 7 22 18 34 11 12
19 23 17 24 -6 6 -56 -9 -52 -16 3 -4 -2 -13 -10 -20 -8 -7 -15 -18 -15 -25 0
-8 -5 -15 -11 -17 -11 -4 -16 -72 -7 -98 2 -8 3 -12 1 -7 -3 4 -9 7 -14 7 -13
0 -11 -28 5 -72 11 -30 11 -38 1 -38 -15 0 -33 -45 -32 -77 1 -13 5 -23 10
-23 4 0 7 -9 5 -20 -2 -10 0 -19 5 -20 23 -1 26 2 21 18 -3 9 2 6 10 -8 19
-30 20 -41 4 -37 -6 1 -12 -10 -13 -26 -2 -34 -13 -46 -25 -27 -8 12 -10 11
-10 -5 0 -11 7 -31 16 -43 15 -22 15 -24 -2 -38 -18 -13 -18 -15 -2 -24 23
-14 34 -76 17 -96 -11 -14 -13 -14 -22 2 -6 11 -5 19 4 25 8 5 10 9 4 9 -5 0
-3 5 5 10 11 7 6 9 -17 6 -18 -2 -30 1 -27 6 8 12 -15 38 -33 38 -10 0 -13 -6
-9 -16 4 -9 1 -23 -5 -30 -8 -10 -7 -19 5 -36 9 -12 16 -30 16 -40 0 -10 5
-18 10 -18 6 0 28 -28 50 -62 22 -33 49 -67 60 -75 11 -8 20 -19 20 -26 0 -19
86 -93 136 -118 26 -12 49 -30 52 -41 2 -10 11 -18 19 -18 15 0 81 -47 117
-83 10 -10 24 -16 30 -14 7 3 18 -3 24 -13 6 -10 24 -25 39 -32 17 -8 27 -20
25 -31 -2 -11 6 -19 23 -23 13 -3 22 -11 19 -16 -4 -6 2 -7 16 -3 18 6 22 4
17 -8 -4 -11 0 -14 16 -10 13 3 18 1 12 -4 -5 -4 -15 -17 -21 -28 -7 -11 -19
-19 -28 -19 -10 1 -16 -6 -16 -21 0 -18 4 -22 20 -18 28 7 60 -23 60 -56 0
-15 8 -31 20 -39 11 -7 20 -21 20 -31 0 -33 48 -35 121 -5 110 46 128 54 134
64 7 12 -54 40 -85 40 -22 0 -28 34 -8 46 6 4 8 3 4 -4 -9 -15 13 -27 27 -13
13 13 31 15 23 2 -3 -4 12 -5 33 -1 22 4 47 3 57 -3 14 -8 16 -7 11 7 -4 9 -2
16 2 16 5 0 11 -5 13 -11 4 -13 30 -14 128 -4 41 4 85 14 97 21 12 8 34 14 48
14 33 0 62 15 98 52 16 15 35 28 42 28 8 0 18 6 22 13 4 6 31 33 60 60 29 26
49 47 45 47 -9 0 21 20 31 20 9 0 0 -42 -20 -95 -30 -75 -32 -124 -11 -200 30
-106 47 -195 48 -243 0 -40 -1 -42 -20 -32 -41 22 -54 -19 -20 -63 11 -14 20
-30 20 -36 0 -17 23 -13 143 25 276 90 497 216 723 414 52 46 99 91 104 101 7
13 -1 45 -30 121 -55 141 -73 175 -129 244 -54 66 -154 138 -247 177 -34 15
-83 38 -109 52 -48 25 -115 34 -115 15 0 -5 -15 -10 -32 -11 -30 0 -31 -1 -10
-9 23 -10 29 -25 13 -35 -5 -3 -12 -19 -16 -36 -4 -17 -10 -28 -13 -24 -3 3
-11 -9 -16 -27 -7 -20 -19 -34 -31 -37 -26 -4 -37 -22 -23 -38 11 -14 -1 -36
-34 -61 -10 -7 -18 -20 -18 -28 0 -8 -7 -14 -15 -14 -9 0 -15 -9 -15 -22 -1
-22 -1 -22 -14 -5 -14 17 -15 17 -21 -5 -9 -28 -23 -38 -53 -38 -16 0 -22 -5
-20 -18 2 -12 -3 -16 -19 -15 -13 2 -22 -1 -22 -5 1 -4 1 -16 0 -27 -1 -17 -3
-18 -12 -5 -8 11 -12 12 -16 2 -2 -6 -9 -10 -14 -6 -5 3 -9 1 -9 -5 0 -5 5
-13 10 -16 6 -3 10 -11 10 -17 0 -6 -6 -6 -16 2 -13 11 -16 10 -21 -8 -5 -21
-22 -27 -63 -24 -9 1 -23 -11 -33 -26 -14 -24 -17 -24 -17 -7 -1 17 -3 16 -16
-8 -8 -15 -12 -32 -8 -38 4 -7 -3 -10 -18 -7 -14 1 -32 -3 -41 -10 -13 -11
-18 -10 -29 7 -11 19 -14 19 -30 4 -17 -15 -19 -15 -33 3 -21 27 -18 52 6 59
20 7 20 8 -6 21 -32 16 -45 11 -45 -19 -1 -20 -1 -21 -11 -4 -8 14 -14 16 -25
6 -8 -6 -14 -20 -14 -30 0 -11 -4 -19 -10 -19 -12 0 -12 1 0 60 7 36 5 49 -7
63 -20 21 -37 22 -29 1 4 -12 2 -15 -9 -10 -9 3 -15 0 -15 -10 0 -11 6 -13 20
-9 15 5 21 0 26 -20 9 -35 2 -39 -24 -15 l-22 21 0 -23 c-1 -17 -7 -11 -24 25
-29 59 -40 71 -30 33 6 -24 4 -28 -8 -23 -13 4 -14 2 -4 -18 6 -13 13 -20 16
-15 3 5 5 -20 5 -55 0 -34 -3 -58 -7 -52 -4 7 -8 8 -8 2 -1 -16 -30 27 -30 44
1 13 4 12 15 -3 19 -25 19 -17 0 25 -12 28 -14 30 -15 12 0 -29 -7 -29 -29 -2
l-17 21 -17 -26 c-20 -30 -37 -35 -31 -8 3 9 1 28 -5 42 -6 15 -11 19 -12 10
-1 -8 -5 3 -10 25 -6 32 -7 28 -4 -22 3 -34 1 -64 -3 -67 -4 -2 -8 6 -9 17 -5
57 -11 71 -33 79 -22 8 -22 9 -5 28 17 19 17 20 -3 20 -11 0 -23 6 -25 13 -3
6 -6 1 -7 -13 0 -22 -2 -23 -11 -7 -5 9 -20 17 -31 17 -12 0 -18 3 -15 6 3 4
2 15 -4 26 -8 14 -17 18 -34 14 -14 -4 -25 -1 -28 7 -4 8 -6 7 -6 -3 -1 -8 -8
-2 -16 14 -9 16 -13 36 -11 43 3 7 -1 13 -9 13 -15 0 -38 67 -28 83 3 5 -5 4
-17 -3 -20 -11 -21 -10 -15 9 4 15 2 21 -8 21 -9 0 -17 3 -20 8 -2 4 -3 2 -1
-4 4 -18 -13 -38 -35 -39 -12 -1 -21 4 -21 13 0 10 -7 13 -21 9 -17 -4 -18 -3
-8 9 7 8 20 12 30 9 11 -4 20 -2 20 4 1 6 2 17 3 24 1 6 8 11 15 9 8 -2 11 9
9 35 -3 32 -6 38 -24 35 -12 -1 -26 3 -32 11 -9 10 -4 12 23 9 22 -3 35 0 35
7 0 6 7 11 15 11 8 0 15 4 15 9 0 5 8 12 18 14 16 4 16 5 -1 6 -10 0 -28 -4
-40 -10 -22 -10 -22 -10 -2 6 12 10 32 15 49 12 32 -4 116 36 116 56 1 26 47
55 94 61 26 2 58 12 71 20 28 18 86 21 102 5 6 -6 35 -11 66 -12 31 -1 59 -6
63 -9 4 -4 17 -5 29 -2 13 3 26 1 29 -4 9 -15 -21 -35 -43 -29 -11 3 -28 -3
-40 -15 -26 -24 -27 -32 -1 -25 21 5 28 -9 8 -15 -7 -3 -13 -17 -13 -31 -1
-15 -10 -34 -21 -43 -10 -8 -12 -13 -4 -9 8 4 5 -2 -7 -12 -18 -15 -53 -79
-53 -97 0 -3 8 -2 17 1 13 5 15 2 10 -11 -4 -10 -7 -25 -7 -34 0 -15 -2 -15
-11 -2 -8 12 -10 12 -7 1 5 -18 48 -22 48 -5 0 7 4 15 9 18 5 4 7 -4 4 -16 -5
-20 -2 -19 26 10 17 17 36 32 43 32 6 0 8 -3 5 -7 -4 -3 -2 -12 5 -20 16 -20
-5 -41 -26 -24 -20 17 -27 0 -10 -24 13 -17 16 -18 25 -5 9 13 11 13 16 1 3
-8 17 -26 30 -39 18 -18 27 -22 36 -13 13 13 47 15 47 2 0 -5 -11 -12 -25 -15
-14 -4 -25 -11 -25 -16 0 -6 -10 -10 -22 -10 -27 0 -81 -62 -76 -88 3 -15 6
-14 26 6 15 15 22 18 22 8 0 -19 39 -46 66 -46 13 0 24 -7 26 -17 3 -16 6 -15
16 4 11 19 9 26 -8 43 -16 16 -25 18 -45 10 -14 -5 -25 -7 -25 -5 0 3 11 10
25 15 14 5 25 17 25 26 0 13 5 12 25 -7 13 -13 25 -32 25 -42 0 -10 7 -25 15
-33 13 -14 15 -13 15 10 0 14 -5 26 -11 26 -6 0 -9 6 -6 14 3 8 9 31 12 50 6
32 4 37 -18 45 -29 11 -44 51 -19 52 11 0 12 2 5 6 -7 2 -13 9 -13 14 0 18 36
-14 37 -34 1 -11 9 -27 18 -36 14 -14 17 -14 25 -2 5 9 5 22 -2 34 -8 16 -7
18 11 12 12 -4 21 -2 21 4 0 6 -6 11 -14 11 -8 0 -16 7 -20 15 -3 8 -1 15 3
15 5 0 11 -5 13 -11 5 -16 58 0 58 18 0 8 4 12 9 8 24 -14 17 15 -10 41 -16
15 -39 44 -50 63 l-20 34 25 -17 c25 -16 33 -12 18 10 -12 18 -52 36 -52 24 0
-7 -6 -5 -15 4 -19 19 -20 32 -1 17 12 -10 16 -8 21 11 8 28 35 88 39 88 2 0
1 -12 -2 -27 -2 -16 -1 -25 3 -20 5 4 10 22 11 40 1 17 2 36 3 41 0 5 18 6 39
2 21 -3 55 -1 76 5 27 8 42 7 49 0 6 -6 19 -11 28 -11 11 0 20 -12 26 -37 5
-24 17 -42 31 -48 15 -6 20 -15 16 -27 -3 -10 -1 -18 4 -18 16 0 21 -38 6 -44
-19 -7 -18 -31 2 -50 14 -15 14 -16 -5 -16 -12 0 -21 -4 -21 -10 0 -10 20 -14
55 -12 16 2 17 0 5 -7 -22 -15 -6 -23 24 -12 14 6 33 8 41 5 8 -4 15 -1 15 5
0 6 8 11 18 11 15 1 15 2 -2 15 -22 17 -50 20 -41 5 10 -16 0 -12 -25 10 -20
17 -20 20 -5 20 11 0 15 5 11 15 -3 9 0 15 10 15 10 0 14 -6 10 -15 -6 -17 19
-21 29 -5 8 13 25 13 25 0 0 -5 -7 -10 -16 -10 -8 0 -12 -5 -9 -10 5 -8 11 -8
19 -1 7 6 15 8 18 5 3 -3 5 6 4 20 0 15 -8 29 -18 32 -51 16 6 28 62 13 12 -3
14 4 12 33 -3 33 0 39 23 48 29 11 55 33 55 47 0 4 11 17 25 27 14 10 25 27
25 37 0 11 6 19 14 19 7 0 19 7 26 15 10 12 10 15 -1 15 -10 0 -10 3 -1 12 8
8 6 16 -10 30 -24 20 -20 22 17 8 30 -11 66 5 58 27 -3 7 -9 10 -14 7 -5 -3
-9 -3 -9 1 0 14 53 25 66 14 19 -16 18 -4 -2 15 -9 9 -11 16 -4 16 24 0 53 40
57 82 3 24 9 44 13 46 14 5 -13 61 -33 66 -10 2 -21 13 -24 24 -5 22 -30 32
-78 32 -23 0 -27 -3 -15 -10 12 -8 10 -10 -8 -10 -16 0 -21 4 -16 13 5 7 1 7
-10 -2 -15 -13 -19 -13 -27 0 -8 12 -13 6 -10 -13 0 -4 -8 -10 -19 -13 -22 -7
-27 -41 -7 -48 19 -7 -25 -37 -45 -31 -11 3 -18 0 -18 -7 0 -7 -10 -1 -23 12
-13 13 -22 26 -20 28 1 2 -1 9 -6 15 -5 6 -14 28 -21 49 -6 20 -16 35 -21 32
-8 -6 -10 1 -13 45 -1 10 -26 20 -81 31 -110 23 -130 32 -145 68 -7 17 -19 31
-26 31 -20 0 -17 16 7 39 16 14 18 23 10 37 -5 11 -12 27 -15 37 -8 25 -33 21
-99 -14 -32 -17 -61 -28 -64 -25 -3 3 6 10 21 15 14 6 26 15 26 21 0 6 -4 9
-9 5 -6 -3 -13 1 -18 8 -4 8 -24 17 -44 20 -29 4 -41 1 -62 -19z m38 -156 c0
-29 3 -32 31 -34 31 -2 82 -23 56 -24 -9 0 -11 -8 -8 -22 l6 -23 -12 23 c-6
13 -17 21 -24 18 -8 -3 -11 0 -7 10 3 7 0 14 -7 14 -6 0 -8 -4 -5 -10 3 -5 0
-10 -7 -11 -7 0 -3 -5 9 -11 11 -5 29 -25 39 -44 11 -21 22 -30 29 -25 6 5 15
3 23 -5 13 -14 4 -20 -23 -14 -5 1 -6 -2 -2 -7 5 -4 13 -9 18 -9 5 -1 12 -2
15 -3 4 0 0 -9 -7 -18 -10 -11 -10 -14 -1 -9 8 5 12 -1 13 -21 0 -24 1 -25 8
-8 5 11 6 25 3 30 -3 6 -2 7 3 3 4 -4 9 -24 11 -44 4 -48 14 -75 24 -69 11 7
20 -21 10 -31 -4 -5 -10 -18 -13 -29 -4 -16 -5 -14 -6 7 0 14 5 29 12 31 6 3
2 6 -10 6 -13 1 -23 6 -23 11 0 6 -7 22 -17 36 -12 19 -18 22 -25 12 -6 -9 -7
-6 -4 8 4 13 -1 27 -14 39 -11 10 -17 22 -13 28 3 5 1 7 -4 4 -6 -4 -20 12
-32 36 -12 23 -15 34 -7 24 13 -16 14 -16 19 4 3 11 3 18 0 15 -3 -3 -20 5
-37 18 -17 13 -37 21 -45 18 -8 -3 -11 0 -7 7 4 6 1 11 -8 11 -9 0 -16 -5 -16
-11 0 -5 -5 -7 -11 -3 -8 5 -8 9 1 14 7 4 9 13 6 19 -4 6 -11 9 -15 7 -4 -3
-8 4 -8 15 -1 13 5 19 21 19 16 0 58 21 61 30 0 0 0 -14 0 -32z m29 17 c3 -8
1 -15 -4 -15 -6 0 -10 7 -10 15 0 8 2 15 4 15 2 0 6 -7 10 -15z m-360 -114
c-9 -10 -26 18 -18 30 5 9 9 8 14 -7 4 -10 6 -21 4 -23z m-76 4 c-6 -14 -13
-23 -15 -21 -5 5 15 46 22 46 3 0 -1 -11 -7 -25z m532 9 c0 -14 -3 -14 -15 -4
-8 7 -15 14 -15 16 0 2 7 4 15 4 8 0 15 -7 15 -16z m-110 -34 c0 -3 -6 -14
-13 -24 -12 -16 -13 -16 -13 3 0 11 4 17 8 15 4 -3 8 -1 8 5 0 5 -4 13 -10 16
-5 3 -10 12 -10 18 1 12 30 -21 30 -33z m197 27 c-1 -5 4 -12 12 -15 10 -3 11
0 5 9 -7 12 -5 12 9 0 10 -8 17 -28 17 -47 0 -40 -14 -46 -17 -7 0 14 -7 30
-15 34 -7 4 -21 14 -31 21 -18 13 -17 14 2 14 11 0 19 -4 18 -9z m183 -11 c0
-2 -9 -2 -20 1 -11 3 -20 9 -20 15 0 5 9 4 20 -2 11 -6 20 -12 20 -14z m35 4
c-3 -5 -11 -10 -16 -10 -6 0 -7 5 -4 10 3 6 11 10 16 10 6 0 7 -4 4 -10z
m-250 -18 c-3 -3 -11 0 -18 7 -9 10 -8 11 6 5 10 -3 15 -9 12 -12z m105 -3 c0
-5 12 -27 26 -49 15 -22 25 -43 22 -45 -3 -3 -13 11 -24 30 -10 19 -24 35 -30
35 -6 0 -11 11 -11 25 0 13 3 22 8 19 5 -3 9 -10 9 -15z m-600 -3 c0 -8 3 -23
6 -33 4 -13 3 -15 -4 -4 -8 11 -10 11 -14 0 -3 -8 -5 1 -5 19 0 17 4 32 9 32
4 0 8 -6 8 -14z m77 -18 c-3 -7 -5 -2 -5 12 0 14 2 19 5 13 2 -7 2 -19 0 -25z
m393 17 c7 -9 8 -15 2 -15 -5 0 -12 7 -16 15 -3 8 -4 15 -2 15 2 0 9 -7 16
-15z m-278 -31 c-9 -16 -10 -14 -9 8 1 15 6 23 11 18 4 -4 4 -16 -2 -26z
m-299 -15 c-5 -5 -9 3 -11 19 -1 24 0 25 9 9 7 -11 7 -23 2 -28z m-796 9 c-3
-8 -6 -5 -6 6 -1 11 2 17 5 13 3 -3 4 -12 1 -19z m1428 -39 c-5 -7 -4 -10 1
-6 6 3 15 -7 21 -24 9 -24 9 -29 -3 -29 -9 0 -13 4 -9 9 3 6 -3 15 -14 21 -12
6 -18 16 -15 25 4 8 2 15 -3 15 -5 0 -9 9 -10 20 -2 19 -1 19 19 1 12 -12 17
-25 13 -32z m-805 -6 c0 -35 3 -44 10 -33 6 9 10 10 10 3 0 -17 -17 -25 -26
-12 -9 16 -11 89 -1 89 4 0 7 -21 7 -47z m636 22 c24 -37 12 -40 -15 -5 -12
17 -17 30 -12 30 6 0 18 -11 27 -25z m-842 0 c-4 -8 -10 -12 -15 -9 -11 6 -2
24 11 24 5 0 7 -7 4 -15z m693 -11 c-3 -18 1 -29 14 -37 22 -14 26 -32 5 -24
-10 4 -14 1 -10 -11 2 -9 -2 -4 -9 12 -14 28 -14 28 -21 -35 -7 -61 -8 -63
-21 -39 -17 30 -19 57 -4 62 5 2 13 22 16 46 3 23 9 39 14 36 5 -3 9 0 9 5 0
6 3 11 6 11 4 0 4 -12 1 -26z m-217 9 c1 -5 3 -33 6 -63 3 -30 3 -53 0 -50 -9
10 -23 120 -14 120 4 0 8 -3 8 -7z m1040 -18 c7 -8 20 -14 29 -14 13 1 13 2
-1 6 -10 2 -18 9 -18 14 0 19 36 7 54 -18 16 -21 17 -31 8 -55 -7 -20 -7 -28
1 -28 27 0 -7 -13 -40 -15 l-38 -3 33 16 c31 15 44 42 20 42 -15 0 -48 -20
-34 -20 12 0 -25 -29 -38 -30 -5 0 -3 7 4 15 15 18 7 19 -23 4 -21 -10 -21
-10 -3 5 11 9 25 16 30 16 6 0 3 5 -6 11 -22 12 -25 69 -4 69 7 0 19 -7 26
-15z m-1440 1 c0 -3 -4 -8 -10 -11 -5 -3 -10 -1 -10 4 0 6 5 11 10 11 6 0 10
-2 10 -4z m298 -48 c7 -29 21 -65 32 -80 16 -22 17 -28 6 -28 -8 0 -18 9 -21
20 -3 11 -10 20 -15 20 -12 0 -20 -29 -10 -35 6 -4 10 -12 10 -18 0 -7 -4 -6
-11 3 -8 11 -9 7 -5 -17 3 -19 1 -33 -4 -33 -6 0 -10 27 -10 61 0 43 3 58 12
53 8 -5 9 -2 5 10 -13 33 -20 96 -11 96 5 0 15 -24 22 -52z m258 16 c-4 -14
-9 -24 -12 -21 -3 2 -2 17 2 31 3 15 9 25 11 22 3 -3 2 -17 -1 -32z m81 14
c-3 -8 -6 -5 -6 6 -1 11 2 17 5 13 3 -3 4 -12 1 -19z m-265 -30 c-6 -6 -7 0
-4 19 5 21 7 23 10 9 2 -10 0 -22 -6 -28z m617 15 c0 -25 -1 -26 -9 -8 -12 27
-12 35 0 35 6 0 10 -12 9 -27z m196 17 c3 -5 1 -10 -4 -10 -6 0 -11 5 -11 10
0 6 2 10 4 10 3 0 8 -4 11 -10z m-97 -38 c2 -13 -2 -22 -9 -22 -7 0 -9 3 -6 6
3 4 2 16 -4 26 -9 16 -8 19 3 16 7 -3 14 -14 16 -26z m-344 2 c3 -8 2 -12 -4
-9 -6 3 -10 10 -10 16 0 14 7 11 14 -7z m49 -9 c-7 -21 -13 -19 -13 6 0 11 4
18 10 14 5 -3 7 -12 3 -20z m-754 3 c-1 -21 -18 -55 -18 -39 -1 11 -5 10 -16
-5 -12 -15 -12 -11 2 19 16 36 34 49 32 25z m339 -16 c15 12 16 11 3 -4 -8
-11 -9 -18 -3 -18 6 0 10 -9 9 -20 -2 -29 -14 -24 -26 11 -11 32 -14 56 -4 31
4 -10 8 -10 21 0z m599 -7 c0 -8 -4 -12 -9 -9 -4 3 -8 9 -8 15 0 5 4 9 8 9 5
0 9 -7 9 -15z m-856 -87 c-2 -30 -6 -46 -10 -37 -7 13 -8 34 -2 104 3 27 4 28
9 7 4 -13 5 -46 3 -74z m-39 60 c-7 -7 -12 -8 -12 -2 0 6 3 14 7 17 3 4 9 5
12 2 2 -3 -1 -11 -7 -17z m866 -9 c-3 -8 -7 -3 -11 10 -4 17 -3 21 5 13 5 -5
8 -16 6 -23z m-498 2 c0 -6 -4 -13 -10 -16 -5 -3 -10 1 -10 9 0 9 5 16 10 16
6 0 10 -4 10 -9z m-427 -21 c-3 -11 -7 -20 -9 -20 -2 0 -4 9 -4 20 0 11 4 20
9 20 5 0 7 -9 4 -20z m544 4 c3 -9 -1 -29 -10 -44 -9 -15 -13 -31 -9 -35 4 -5
1 -5 -5 -1 -7 4 -13 13 -13 21 0 7 -7 15 -15 19 -8 3 -15 10 -15 16 0 6 7 4
16 -5 13 -13 19 -13 31 -3 10 8 11 14 4 16 -14 5 -15 32 -1 32 6 0 13 -7 17
-16z m888 -4 c-3 -5 -12 -10 -18 -10 -7 0 -6 4 3 10 19 12 23 12 15 0z m35
-10 c0 -5 -7 -10 -16 -10 -8 0 -12 5 -9 10 3 6 10 10 16 10 5 0 9 -4 9 -10z
m-1071 -50 c0 -9 -6 -4 -14 10 -19 33 -19 49 0 24 8 -10 14 -26 14 -34z m275
34 c3 -8 2 -12 -4 -9 -6 3 -10 10 -10 16 0 14 7 11 14 -7z m-219 -4 c3 -5 1
-10 -4 -10 -6 0 -11 5 -11 10 0 6 2 10 4 10 3 0 8 -4 11 -10z m-115 -10 c0 -5
-2 -10 -4 -10 -3 0 -8 5 -11 10 -3 6 -1 10 4 10 6 0 11 -4 11 -10z m-450 -34
c0 -2 -8 -10 -17 -17 -16 -13 -17 -12 -4 4 13 16 21 21 21 13z m1455 -16 c10
-11 14 -20 9 -20 -5 0 -15 9 -22 20 -7 11 -11 20 -9 20 2 0 12 -9 22 -20z
m-328 -42 c-3 -7 -5 -2 -5 12 0 14 2 19 5 13 2 -7 2 -19 0 -25z m110 -30 c-3
-8 -6 -5 -6 6 -1 11 2 17 5 13 3 -3 4 -12 1 -19z m-1612 -106 c-2 -9 -4 -21
-5 -27 0 -5 -7 1 -14 14 -17 30 -10 57 9 41 7 -6 12 -19 10 -28z m1280 28 c-3
-5 -12 -7 -20 -3 -21 7 -19 13 6 13 11 0 18 -4 14 -10z m-1345 -50 c0 -5 -4
-10 -10 -10 -5 0 -10 5 -10 10 0 6 5 10 10 10 6 0 10 -4 10 -10z m150 -22 c0
-20 -21 -48 -37 -48 -14 0 -14 2 2 20 9 10 15 26 12 34 -4 10 -1 13 9 9 7 -3
14 -9 14 -15z m1113 9 c3 -8 -1 -14 -9 -14 -15 0 -18 9 -7 20 9 9 10 9 16 -6z
m-1201 -32 c3 -15 1 -25 -6 -25 -6 0 -12 11 -12 25 -2 32 12 32 18 0z m1167
-50 c6 -3 11 -11 11 -16 0 -6 -6 -7 -12 -2 -26 15 -35 11 -31 -16 4 -20 2 -23
-6 -11 -9 13 -12 12 -26 -5 -16 -20 -16 -20 -5 2 9 19 7 24 -11 34 -29 15 -41
2 -49 -56 -1 -5 -6 1 -11 14 -7 17 -15 22 -30 18 -16 -4 -18 -3 -8 9 6 8 20
14 31 14 16 0 17 3 7 23 -11 20 -11 21 4 8 15 -11 17 -11 17 2 0 9 9 14 24 13
18 -1 22 -4 14 -14 -6 -7 -9 -14 -7 -15 2 -1 13 -9 23 -17 18 -14 19 -13 13 8
-5 20 -2 23 12 19 14 -3 18 0 14 17 l-4 21 10 -21 c5 -12 14 -25 20 -29z
m-189 5 c0 -29 -17 -33 -22 -5 -3 13 -3 27 0 29 9 10 22 -5 22 -24z m-1090
-15 c7 -9 11 -17 8 -20 -2 -2 -12 4 -21 15 -9 11 -13 20 -8 20 5 0 14 -7 21
-15z m104 -7 c-8 -29 -11 -31 -23 -24 -6 4 -4 14 7 26 23 24 25 24 16 -2z
m153 -10 c-3 -8 -6 -5 -6 6 -1 11 2 17 5 13 3 -3 4 -12 1 -19z m823 -17 c0 -4
-7 -8 -15 -8 -8 0 -15 6 -15 13 0 8 6 11 15 8 8 -4 15 -9 15 -13z m-900 -4 c0
-2 -10 -12 -21 -23 -22 -19 -22 -19 -10 4 10 18 31 31 31 19z m90 -7 c0 -5 -5
-10 -11 -10 -5 0 -7 5 -4 10 3 6 8 10 11 10 2 0 4 -4 4 -10z m854 2 c-6 -4
-14 -26 -17 -50 -6 -51 -13 -60 -30 -42 -9 10 -9 11 1 6 11 -7 13 0 16 62 1
18 14 32 31 32 6 0 5 -3 -1 -8z m-66 -41 c-1 -21 -8 -32 -27 -41 -25 -11 -25
-11 -8 8 10 11 20 29 22 39 5 24 4 23 9 23 3 0 4 -13 4 -29z m-655 -41 c-7 -8
-22 24 -16 34 4 5 10 1 13 -10 4 -10 6 -21 3 -24z m7 -19 c0 -6 -4 -13 -10
-16 -5 -3 -10 1 -10 9 0 9 5 16 10 16 6 0 10 -4 10 -9z m114 -76 c3 -9 12 -12
22 -8 14 5 16 3 9 -13 -4 -10 -11 -32 -15 -49 -4 -16 -8 -22 -9 -12 -1 20 -21
23 -39 5 -9 -9 -12 -9 -12 1 0 18 23 38 38 33 17 -5 15 27 -3 34 -8 4 -15 10
-15 15 0 15 17 10 24 -6z m-142 -17 c-7 -7 -12 -8 -12 -2 0 14 12 26 19 19 2
-3 -1 -11 -7 -17z m219 -123 c-4 -17 -6 -18 -9 -2 -2 9 -7 17 -12 17 -5 0 -7
7 -4 15 9 22 32 -5 25 -30z m594 35 c3 -6 -1 -17 -9 -26 -15 -14 -16 -13 -16
10 0 26 13 35 25 16z m-505 -70 c0 -11 -2 -20 -4 -20 -2 0 -6 9 -9 20 -3 11
-1 20 4 20 5 0 9 -9 9 -20z m402 -154 c7 4 8 2 4 -5 -11 -17 -26 -3 -25 22 2
22 2 22 6 -1 3 -13 9 -19 15 -16z m-152 -16 c0 -11 -6 -20 -14 -20 -9 0 -12 7
-9 20 3 11 9 20 14 20 5 0 9 -9 9 -20z m260 -38 c0 -7 -4 -10 -10 -7 -5 3 -10
16 -10 28 0 18 2 19 10 7 5 -8 10 -21 10 -28z m-220 -21 c-1 -10 -6 -7 -15 9
-19 33 -18 50 0 26 8 -11 15 -27 15 -35z m167 27 c-3 -8 -6 -5 -6 6 -1 11 2
17 5 13 3 -3 4 -12 1 -19z m133 -9 c0 -6 -7 -17 -15 -25 -13 -14 -15 -13 -15
9 0 13 3 27 6 30 9 8 24 -1 24 -14z m-243 -24 c-4 -8 -12 -15 -19 -14 -10 0
-10 2 0 6 6 2 12 12 12 21 0 8 3 13 6 9 4 -3 4 -13 1 -22z m-155 -17 c-7 -7
-12 -8 -12 -2 0 14 12 26 19 19 2 -3 -1 -11 -7 -17z"/>
<path d="M2905 1690 c4 -6 11 -8 16 -5 14 9 11 15 -7 15 -8 0 -12 -5 -9 -10z"/>
<path d="M630 2024 c0 -8 5 -12 10 -9 6 4 8 11 5 16 -9 14 -15 11 -15 -7z"/>
<path d="M2468 2033 c-10 -2 -18 -11 -18 -20 0 -8 5 -12 13 -9 6 3 20 9 30 12
9 4 17 10 17 15 0 9 -13 10 -42 2z"/>
<path d="M586 1991 c-4 -5 -2 -12 3 -15 5 -4 12 -2 15 3 4 5 2 12 -3 15 -5 4
-12 2 -15 -3z"/>
<path d="M805 1950 c-3 -5 1 -10 10 -10 9 0 13 5 10 10 -3 6 -8 10 -10 10 -2
0 -7 -4 -10 -10z"/>
<path d="M1020 1928 c0 -9 5 -20 10 -23 13 -8 13 5 0 25 -8 13 -10 13 -10 -2z"/>
<path d="M1824 1926 c-9 -10 -6 -13 17 -13 16 0 29 4 29 9 0 5 -4 6 -10 3 -5
-3 -10 -1 -10 4 0 15 -12 13 -26 -3z"/>
<path d="M1728 1923 c6 -2 18 -2 25 0 6 3 1 5 -13 5 -14 0 -19 -2 -12 -5z"/>
<path d="M1562 1820 c0 -14 2 -19 5 -12 2 6 2 18 0 25 -3 6 -5 1 -5 -13z"/>
<path d="M1582 1820 c0 -14 2 -19 5 -12 2 6 2 18 0 25 -3 6 -5 1 -5 -13z"/>
<path d="M1606 1765 c-9 -26 -7 -32 5 -12 6 10 9 21 6 23 -2 3 -7 -2 -11 -11z"/>
<path d="M1627 1753 c-4 -3 -7 -11 -7 -17 0 -6 5 -5 12 2 6 6 9 14 7 17 -3 3
-9 2 -12 -2z"/>
<path d="M1897 1740 c3 -11 9 -20 15 -20 5 0 4 9 -2 20 -6 11 -12 20 -14 20
-2 0 -2 -9 1 -20z"/>
<path d="M641 1561 c-10 -6 -10 -13 -2 -29 6 -11 8 -29 5 -39 -6 -16 -5 -15 9
2 11 14 12 25 6 38 -6 9 -7 22 -4 27 7 12 4 12 -14 1z"/>
<path d="M670 1476 c0 -8 -6 -16 -12 -19 -9 -3 -7 -11 8 -28 12 -13 29 -41 39
-61 9 -20 23 -39 31 -42 21 -8 18 31 -6 61 -11 14 -20 32 -20 39 0 8 -7 14
-15 14 -11 0 -14 7 -9 25 4 15 2 25 -5 25 -6 0 -11 -6 -11 -14z"/>
<path d="M830 1470 c0 -5 5 -10 11 -10 5 0 7 5 4 10 -3 6 -8 10 -11 10 -2 0
-4 -4 -4 -10z"/>
<path d="M801 1444 c0 -11 3 -14 6 -6 3 7 2 16 -1 19 -3 4 -6 -2 -5 -13z"/>
<path d="M784 1337 c-8 -22 11 -46 26 -31 7 7 5 17 -4 30 -14 18 -15 18 -22 1z"/>
<path d="M767 1286 c-6 -15 1 -26 15 -26 11 0 10 27 -1 34 -5 3 -11 0 -14 -8z"/>
<path d="M1856 1223 c-6 -14 -5 -15 5 -6 7 7 10 15 7 18 -3 3 -9 -2 -12 -12z"/>
<path d="M2720 1190 c0 -5 4 -10 9 -10 6 0 13 5 16 10 3 6 -1 10 -9 10 -9 0
-16 -4 -16 -10z"/>
<path d="M2180 1181 c0 -6 4 -13 10 -16 6 -3 7 1 4 9 -7 18 -14 21 -14 7z"/>
<path d="M297 1065 c-39 -27 -46 -45 -24 -64 11 -8 21 0 45 35 46 64 41 71
-21 29z"/>
<path d="M2232 1051 c7 -11 18 -23 25 -25 22 -9 14 8 -13 28 -25 18 -25 18
-12 -3z"/>
<path d="M2440 1022 c0 -8 37 -42 45 -42 3 0 -2 11 -11 25 -16 24 -34 33 -34
17z"/>
<path d="M2535 1000 c3 -5 10 -10 16 -10 5 0 9 5 9 10 0 6 -7 10 -16 10 -8 0
-12 -4 -9 -10z"/>
<path d="M1460 970 c0 -5 5 -10 10 -10 6 0 10 5 10 10 0 6 -4 10 -10 10 -5 0
-10 -4 -10 -10z"/>
<path d="M1872 958 c-16 -16 -15 -38 2 -38 15 0 29 37 17 45 -4 2 -13 -1 -19
-7z"/>
<path d="M2187 914 c-8 -8 3 -34 14 -34 11 0 12 27 0 34 -4 3 -11 3 -14 0z"/>
<path d="M2230 905 c0 -8 8 -11 20 -8 11 3 20 7 20 8 0 1 -9 5 -20 8 -12 3
-20 0 -20 -8z"/>
<path d="M1936 891 c-3 -5 1 -12 10 -15 20 -8 29 -1 19 13 -8 13 -22 14 -29 2z"/>
<path d="M2240 870 c0 -5 9 -10 20 -10 11 0 20 5 20 10 0 6 -9 10 -20 10 -11
0 -20 -4 -20 -10z"/>
<path d="M2300 870 c-13 -8 -12 -10 3 -10 9 0 17 5 17 10 0 12 -1 12 -20 0z"/>
<path d="M2488 853 c7 -3 16 -2 19 1 4 3 -2 6 -13 5 -11 0 -14 -3 -6 -6z"/>
<path d="M1570 839 c0 -5 5 -7 10 -4 6 3 10 8 10 11 0 2 -4 4 -10 4 -5 0 -10
-5 -10 -11z"/>
<path d="M715 820 c3 -5 8 -10 11 -10 2 0 4 5 4 10 0 6 -5 10 -11 10 -5 0 -7
-4 -4 -10z"/>
<path d="M2347 804 c-7 -8 14 -54 25 -54 5 0 2 10 -7 23 -8 13 -12 27 -8 30 3
4 4 7 1 7 -2 0 -7 -3 -11 -6z"/>
<path d="M1880 782 c0 -5 7 -15 15 -22 8 -7 15 -8 15 -2 0 5 -7 15 -15 22 -8
7 -15 8 -15 2z"/>
<path d="M1820 764 c0 -8 5 -12 10 -9 6 3 10 10 10 16 0 5 -4 9 -10 9 -5 0
-10 -7 -10 -16z"/>
<path d="M2330 761 c0 -5 5 -13 10 -16 6 -3 10 -2 10 4 0 5 -4 13 -10 16 -5 3
-10 2 -10 -4z"/>
<path d="M1731 738 c-1 -21 15 -32 25 -17 4 7 3 9 -4 5 -6 -3 -13 2 -15 11 -4
16 -5 16 -6 1z"/>
<path d="M2156 737 c3 -10 9 -15 12 -12 3 3 0 11 -7 18 -10 9 -11 8 -5 -6z"/>
<path d="M2101 714 c0 -11 3 -14 6 -6 3 7 2 16 -1 19 -3 4 -6 -2 -5 -13z"/>
<path d="M1820 706 c0 -9 5 -16 10 -16 6 0 10 4 10 9 0 6 -4 13 -10 16 -5 3
-10 -1 -10 -9z"/>
<path d="M2101 654 c0 -11 3 -14 6 -6 3 7 2 16 -1 19 -3 4 -6 -2 -5 -13z"/>
<path d="M2202 636 c7 -8 15 -12 17 -11 5 6 -10 25 -20 25 -5 0 -4 -6 3 -14z"/>
<path d="M2162 489 c-13 -5 -28 -7 -33 -3 -5 3 -9 1 -9 -4 0 -6 -13 -15 -30
-21 -65 -22 -19 -43 82 -37 54 3 88 17 88 37 0 7 -67 42 -74 38 0 0 -12 -4
-24 -10z"/>
<path d="M1450 450 c0 -5 7 -10 15 -10 8 0 15 5 15 10 0 6 -7 10 -15 10 -8 0
-15 -4 -15 -10z"/>
<path d="M1100 231 c0 -11 61 -33 69 -26 3 3 -5 8 -17 12 -12 3 -22 9 -22 14
0 5 -7 9 -15 9 -8 0 -15 -4 -15 -9z"/>
</g>
</svg>
